<svg width="25" height="25" viewBox="0 0 25 25" fill="none" xmlns="http://www.w3.org/2000/svg">
<path d="M21.0085 21.0088V5.00213C21.0085 4.44961 20.5606 4.00171 20.0081 4.00171H4.00139C3.44888 4.00171 3.00098 4.44961 3.00098 5.00213V21.0088" stroke="#BDBDBD" stroke-width="1.5" stroke-linecap="round" stroke-linejoin="round"/>
<path d="M13.5052 21.0088V18.0076H10.5039V21.0088" stroke="#BDBDBD" stroke-width="1.5" stroke-linecap="round" stroke-linejoin="round"/>
<path d="M10.0039 18.0075H14.0056" stroke="#BDBDBD" stroke-width="1.5" stroke-linecap="round" stroke-linejoin="round"/>
<path d="M2.00098 21.0088H22.0093" stroke="#BDBDBD" stroke-width="1.5" stroke-linecap="round" stroke-linejoin="round"/>
<path d="M12.0051 10.8796C11.972 10.8795 11.9403 10.8928 11.917 10.9162C11.8937 10.9397 11.8808 10.9715 11.881 11.0046C11.881 11.0737 11.937 11.1297 12.0061 11.1297C12.0751 11.1297 12.1311 11.0737 12.1311 11.0046C12.13 10.9356 12.0741 10.8801 12.0051 10.8796" stroke="#BDBDBD" stroke-width="1.5" stroke-linecap="round" stroke-linejoin="round"/>
<path d="M10.0039 14.0058H14.0056" stroke="#BDBDBD" stroke-width="1.5" stroke-linecap="round" stroke-linejoin="round"/>
<path d="M21.0085 10.0041H16.9308L12.4429 7.312C12.1261 7.12191 11.7303 7.12191 11.4135 7.312L6.92661 10.0041H3.00098" stroke="#BDBDBD" stroke-width="1.5" stroke-linecap="round" stroke-linejoin="round"/>
<path d="M6.92697 10.0042V21.0087" stroke="#BDBDBD" stroke-width="1.5" stroke-linecap="round" stroke-linejoin="round"/>
<path d="M16.9309 21.0087V10.0042" stroke="#BDBDBD" stroke-width="1.5" stroke-linecap="round" stroke-linejoin="round"/>
</svg>
