<svg width="20" height="20" viewBox="0 0 20 20" fill="none" xmlns="http://www.w3.org/2000/svg">
<path fill-rule="evenodd" clip-rule="evenodd" d="M1.66699 18.3333C1.66699 18.1123 1.75479 17.9004 1.91107 17.7441C2.06735 17.5878 2.27931 17.5 2.50033 17.5H17.5003C17.7213 17.5 17.9333 17.5878 18.0896 17.7441C18.2459 17.9004 18.3337 18.1123 18.3337 18.3333C18.3337 18.5543 18.2459 18.7663 18.0896 18.9226C17.9333 19.0789 17.7213 19.1667 17.5003 19.1667H2.50033C2.27931 19.1667 2.06735 19.0789 1.91107 18.9226C1.75479 18.7663 1.66699 18.5543 1.66699 18.3333Z" fill="white" fill-opacity="0.6"/>
<path fill-rule="evenodd" clip-rule="evenodd" d="M3.54199 3.33341C3.54199 2.72563 3.78343 2.14273 4.21321 1.71296C4.64298 1.28319 5.22587 1.04175 5.83366 1.04175H14.167C14.7748 1.04175 15.3577 1.28319 15.7874 1.71296C16.2172 2.14273 16.4587 2.72563 16.4587 3.33341V18.3334C16.4587 18.4992 16.3928 18.6581 16.2756 18.7754C16.1584 18.8926 15.9994 18.9584 15.8337 18.9584H4.16699C4.00123 18.9584 3.84226 18.8926 3.72505 18.7754C3.60784 18.6581 3.54199 18.4992 3.54199 18.3334V3.33341ZM7.29199 15.0001C7.29199 14.1942 7.94533 13.5417 8.75033 13.5417H11.2503C12.0553 13.5417 12.7087 14.1951 12.7087 15.0001V18.2217C12.7087 18.3875 12.6428 18.5465 12.5256 18.6637C12.4084 18.7809 12.2494 18.8467 12.0837 18.8467C11.9179 18.8467 11.7589 18.7809 11.6417 18.6637C11.5245 18.5465 11.4587 18.3875 11.4587 18.2217V15.0001C11.4587 14.9448 11.4367 14.8918 11.3976 14.8528C11.3586 14.8137 11.3056 14.7917 11.2503 14.7917H8.75033C8.69507 14.7917 8.64208 14.8137 8.60301 14.8528C8.56394 14.8918 8.54199 14.9448 8.54199 15.0001V18.2217C8.54199 18.3875 8.47614 18.5465 8.35893 18.6637C8.24172 18.7809 8.08275 18.8467 7.91699 18.8467C7.75123 18.8467 7.59226 18.7809 7.47505 18.6637C7.35784 18.5465 7.29199 18.3875 7.29199 18.2217V15.0001ZM8.33366 4.37508C8.1679 4.37508 8.00893 4.44093 7.89172 4.55814C7.77451 4.67535 7.70866 4.83432 7.70866 5.00008C7.70866 5.16584 7.77451 5.32481 7.89172 5.44202C8.00893 5.55923 8.1679 5.62508 8.33366 5.62508H11.667C11.8328 5.62508 11.9917 5.55923 12.1089 5.44202C12.2261 5.32481 12.292 5.16584 12.292 5.00008C12.292 4.83432 12.2261 4.67535 12.1089 4.55814C11.9917 4.44093 11.8328 4.37508 11.667 4.37508H8.33366ZM8.33366 7.29175C8.1679 7.29175 8.00893 7.3576 7.89172 7.47481C7.77451 7.59202 7.70866 7.75099 7.70866 7.91675C7.70866 8.08251 7.77451 8.24148 7.89172 8.35869C8.00893 8.4759 8.1679 8.54175 8.33366 8.54175H11.667C11.8328 8.54175 11.9917 8.4759 12.1089 8.35869C12.2261 8.24148 12.292 8.08251 12.292 7.91675C12.292 7.75099 12.2261 7.59202 12.1089 7.47481C11.9917 7.3576 11.8328 7.29175 11.667 7.29175H8.33366ZM8.33366 10.2084C8.1679 10.2084 8.00893 10.2743 7.89172 10.3915C7.77451 10.5087 7.70866 10.6677 7.70866 10.8334C7.70866 10.9992 7.77451 11.1581 7.89172 11.2754C8.00893 11.3926 8.1679 11.4584 8.33366 11.4584H11.667C11.8328 11.4584 11.9917 11.3926 12.1089 11.2754C12.2261 11.1581 12.292 10.9992 12.292 10.8334C12.292 10.6677 12.2261 10.5087 12.1089 10.3915C11.9917 10.2743 11.8328 10.2084 11.667 10.2084H8.33366Z" fill="white" fill-opacity="0.6"/>
</svg>
