<svg width="20" height="20" viewBox="0 0 20 20" fill="none" xmlns="http://www.w3.org/2000/svg">
<path fill-rule="evenodd" clip-rule="evenodd" d="M8.00449 3.00831C7.49881 3.28411 7.05581 3.66178 6.70346 4.11744C6.35111 4.57311 6.09706 5.09688 5.95736 5.65569C5.81766 6.2145 5.79533 6.7962 5.8918 7.36407C5.98827 7.93194 6.20143 8.47364 6.51783 8.95497C6.05624 8.93259 5.60537 8.80812 5.19769 8.59052C4.79 8.37292 4.43565 8.06761 4.16016 7.69658C3.88467 7.32555 3.6949 6.89804 3.60451 6.44484C3.51413 5.99164 3.52538 5.52404 3.63746 5.07571C3.74954 4.62739 3.95966 4.2095 4.25268 3.85216C4.5457 3.49481 4.91433 3.2069 5.33201 3.00916C5.7497 2.81143 6.20603 2.70879 6.66816 2.70864C7.13028 2.70849 7.58668 2.81084 8.00449 3.00831ZM6.90116 10.2083C5.87 10.5167 4.96587 11.1495 4.32314 12.0128C3.6804 12.8761 3.33339 13.9237 3.33366 15V16.4583H1.66699C1.50123 16.4583 1.34226 16.3925 1.22505 16.2752C1.10784 16.158 1.04199 15.9991 1.04199 15.8333V14.1666C1.04199 13.1168 1.45903 12.11 2.20136 11.3677C2.94369 10.6253 3.95051 10.2083 5.00033 10.2083H6.90116ZM10.0003 3.54164C9.17152 3.54164 8.37667 3.87088 7.79062 4.45693C7.20457 5.04298 6.87533 5.83784 6.87533 6.66664C6.87533 7.49544 7.20457 8.2903 7.79062 8.87635C8.37667 9.4624 9.17152 9.79164 10.0003 9.79164C10.8291 9.79164 11.624 9.4624 12.21 8.87635C12.7961 8.2903 13.1253 7.49544 13.1253 6.66664C13.1253 5.83784 12.7961 5.04298 12.21 4.45693C11.624 3.87088 10.8291 3.54164 10.0003 3.54164ZM8.33366 11.0416C7.28384 11.0416 6.27703 11.4587 5.53469 12.201C4.79236 12.9433 4.37533 13.9502 4.37533 15V16.6666C4.37533 17.0116 4.65533 17.2916 5.00033 17.2916H15.0003C15.1661 17.2916 15.3251 17.2258 15.4423 17.1086C15.5595 16.9914 15.6253 16.8324 15.6253 16.6666V15C15.6253 13.9502 15.2083 12.9433 14.466 12.201C13.7236 11.4587 12.7168 11.0416 11.667 11.0416H8.33366ZM16.4587 5.83331C16.4587 6.63618 16.1498 7.40829 15.5959 7.9895C15.042 8.57071 14.2856 8.91643 13.4837 8.95497C13.8002 8.47368 14.0134 7.93198 14.11 7.36408C14.2065 6.79618 14.1842 6.21444 14.0445 5.65559C13.9048 5.09675 13.6507 4.57295 13.2983 4.11729C12.9459 3.66164 12.5028 3.28402 11.997 3.00831C12.4733 2.7829 12.9989 2.68162 13.5249 2.71387C14.0509 2.74611 14.5602 2.91085 15.0054 3.19276C15.4506 3.47466 15.8173 3.86458 16.0714 4.32624C16.3255 4.78791 16.4587 5.30634 16.4587 5.83331ZM18.3337 16.4583H16.667V15C16.6673 13.9238 16.3204 12.8763 15.6778 12.013C15.0353 11.1497 14.1313 10.5168 13.1003 10.2083H15.0003C16.0501 10.2083 17.057 10.6253 17.7993 11.3677C18.5416 12.11 18.9587 13.1168 18.9587 14.1666V15.8333C18.9587 15.9991 18.8928 16.158 18.7756 16.2752C18.6584 16.3925 18.4994 16.4583 18.3337 16.4583Z" fill="white" fill-opacity="0.6"/>
</svg>
