<svg width="20" height="20" viewBox="0 0 20 20" fill="none" xmlns="http://www.w3.org/2000/svg">
<path fill-rule="evenodd" clip-rule="evenodd" d="M3.87422 2.51928C4.82478 2.19055 6.09025 2 7.45464 2C8.81903 2 10.0845 2.19055 11.0351 2.51928C11.5071 2.68292 11.9405 2.89383 12.2715 3.16366C12.5958 3.42984 12.9093 3.83131 12.9093 4.36368V5.64079C12.9093 5.7717 12.9093 5.83716 12.8831 5.88516C12.8629 5.92279 12.832 5.95364 12.7944 5.97389C12.7464 6.00007 12.6795 6.00007 12.5456 6.00007C11.0933 6.00007 9.70123 6.2008 8.60812 6.57972C8.06993 6.7659 7.50483 7.02845 7.03791 7.411C6.75572 7.64155 6.41971 7.99574 6.20735 8.47284C6.1608 8.5783 6.13753 8.63066 6.09753 8.65466C6.05753 8.67866 6.00516 8.6743 5.90116 8.66484C4.62405 8.55721 3.54694 8.30775 2.73674 7.91792C2.58245 7.84436 2.43261 7.76179 2.28801 7.67065C2.15564 7.58628 2.09018 7.54483 2.04509 7.46264C2 7.38046 2 7.29173 2 7.11355V4.36368C2 3.83131 2.31273 3.42984 2.63783 3.16366C2.96874 2.89383 3.40221 2.68292 3.87422 2.51928ZM3.5593 4.28949C3.70767 4.16804 3.96658 4.02695 4.34986 3.89385C5.1106 3.63057 6.20807 3.45457 7.45464 3.45457C8.70121 3.45457 9.79868 3.63057 10.5602 3.89385C10.9434 4.02695 11.2016 4.16804 11.35 4.28949C11.3612 4.29835 11.3702 4.30962 11.3765 4.32247C11.3827 4.33531 11.3859 4.3494 11.3859 4.36368C11.3859 4.37795 11.3827 4.39204 11.3765 4.40489C11.3702 4.41774 11.3612 4.42901 11.35 4.43786C11.2016 4.55932 10.9427 4.70041 10.5594 4.8335C9.79868 5.09678 8.70121 5.27279 7.45464 5.27279C6.20807 5.27279 5.1106 5.09678 4.34913 4.8335C3.96585 4.70041 3.70767 4.55932 3.5593 4.43786C3.5481 4.42901 3.53905 4.41774 3.53283 4.40489C3.5266 4.39204 3.52337 4.37795 3.52337 4.36368C3.52337 4.3494 3.5266 4.33531 3.53283 4.32247C3.53905 4.30962 3.5481 4.29835 3.5593 4.28949Z" fill="white" fill-opacity="0.6"/>
<path d="M6.00007 10.0377C6.00007 9.90971 6.00007 9.8457 5.96225 9.80425C5.92371 9.76279 5.85971 9.75697 5.73098 9.74534C4.39568 9.62534 3.20729 9.35479 2.26328 8.90023C2.23642 8.8864 2.20873 8.87426 2.18037 8.86387C2.16138 8.85871 2.14153 8.85754 2.12207 8.86043C2.10261 8.86332 2.08395 8.87021 2.06728 8.88067C2.05061 8.89112 2.03629 8.90491 2.02521 8.92117C2.01413 8.93743 2.00654 8.95581 2.00291 8.97514C2 8.98896 2 9.01369 2 9.06169V11.3308C2 11.5236 2 11.6203 2.05236 11.7068C2.10473 11.7941 2.17964 11.8326 2.32873 11.9112C2.4451 11.9723 2.57068 12.0305 2.70547 12.0857C3.47784 12.3999 4.49095 12.5854 5.69316 12.6705C5.8357 12.6807 5.90771 12.685 5.95352 12.6421C6.00007 12.5985 6.00007 12.5265 6.00007 12.3817V10.0377ZM6.00007 14.0581C6.00007 13.928 6.00007 13.8625 5.9608 13.821C5.92152 13.7789 5.85607 13.7745 5.72443 13.7658C4.40732 13.6792 3.22984 13.477 2.29455 13.0967C2.21455 13.0632 2.17382 13.0472 2.14546 13.0472C2.11651 13.0467 2.08809 13.0551 2.06404 13.0712C2.03999 13.0873 2.02145 13.1104 2.01091 13.1374C2 13.1643 2 13.205 2 13.2879V15.0909C2 15.6364 2.35637 16.0167 2.67128 16.2451C3.00075 16.4851 3.4313 16.6713 3.89822 16.8146C4.47277 16.9913 5.16369 17.1229 5.92298 17.1986C6.18844 17.2247 6.3208 17.2386 6.37026 17.1695C6.41899 17.0996 6.35571 16.9644 6.22771 16.6938C6.07767 16.3743 5.99994 16.0257 6.00007 15.6727V14.0581Z" fill="white" fill-opacity="0.6"/>
<path fill-rule="evenodd" clip-rule="evenodd" d="M12.5455 7.09082C11.1811 7.09082 9.9156 7.28137 8.96504 7.6101C8.49303 7.77374 8.05956 7.98465 7.72865 8.25448C7.40428 8.52066 7.09082 8.92213 7.09082 9.4545V11.3673C7.09082 11.6974 7.09082 11.8618 7.18173 12.0262C7.27191 12.1898 7.38392 12.2604 7.60865 12.4022C8.70903 13.0946 10.4058 13.4546 12.5455 13.4546C14.6851 13.4546 16.3819 13.0946 17.4823 12.4022C17.707 12.2604 17.819 12.1898 17.9092 12.0262C18.0001 11.8618 18.0001 11.6974 18.0001 11.368V9.45523C18.0001 8.92213 17.6874 8.52066 17.3615 8.2552C17.0321 7.98465 16.5979 7.77374 16.1259 7.6101C15.1753 7.28137 13.9099 7.09082 12.5455 7.09082ZM9.43995 8.98467C9.05667 9.11777 8.79849 9.25886 8.65012 9.38032C8.63892 9.38917 8.62987 9.40044 8.62365 9.41329C8.61742 9.42613 8.61419 9.44022 8.61419 9.4545C8.61419 9.46877 8.61742 9.48286 8.62365 9.49571C8.62987 9.50856 8.63892 9.51983 8.65012 9.52868C8.79849 9.65014 9.0574 9.79123 9.44068 9.92432C10.2014 10.1876 11.2989 10.3636 12.5455 10.3636C13.792 10.3636 14.8902 10.1876 15.651 9.92432C16.0343 9.79123 16.2924 9.65014 16.4408 9.52868C16.452 9.51983 16.4611 9.50856 16.4673 9.49571C16.4735 9.48286 16.4767 9.46877 16.4767 9.4545C16.4767 9.44022 16.4735 9.42613 16.4673 9.41329C16.4611 9.40044 16.452 9.38917 16.4408 9.38032C16.2924 9.25886 16.0335 9.11777 15.6502 8.98467C14.8902 8.72139 13.792 8.54539 12.5455 8.54539C11.2989 8.54539 10.2014 8.72139 9.43995 8.98467Z" fill="white" fill-opacity="0.6"/>
<path d="M12.5455 14.5455C14.6168 14.5455 16.4415 14.2269 17.7761 13.4946C17.8779 13.4386 17.9288 13.4102 17.9645 13.4313C18.0001 13.4524 18.0001 13.5098 18.0001 13.624V15.6728C18.0001 16.2073 17.6786 16.6052 17.3557 16.8634C17.0255 17.1281 16.5921 17.3339 16.1215 17.4932C15.1724 17.8146 13.9084 18.0001 12.5455 18.0001C11.1825 18.0001 9.91851 17.8146 8.9694 17.4932C8.49885 17.3339 8.06538 17.1281 7.7352 16.8634C7.41155 16.6052 7.09082 16.2073 7.09082 15.6728V13.6233C7.09082 13.5098 7.09082 13.4524 7.12718 13.4313C7.16209 13.4102 7.213 13.4386 7.31482 13.4938C8.65012 14.2269 10.4742 14.5455 12.5455 14.5455Z" fill="white" fill-opacity="0.6"/>
</svg>
