<svg width="20" height="20" viewBox="0 0 20 20" fill="none" xmlns="http://www.w3.org/2000/svg">
<path d="M13.1652 14.1007C13.0569 14.4391 12.9991 14.7957 12.9991 15.1593V16.2247H6.99914V15.1593C6.99914 14.7947 6.93906 14.4387 6.82922 14.1007H13.1652ZM9.8927 0.503041C13.6697 0.444041 16.7501 3.48711 16.7501 7.25011C16.7501 9.35201 15.7873 11.226 14.2794 12.462C14.1109 12.6002 13.9565 12.7522 13.8185 12.9161C13.748 12.8674 13.6681 12.8314 13.5812 12.8136L13.4503 12.7999H6.54016C6.4027 12.7999 6.2751 12.8422 6.17004 12.9152C6.02703 12.7447 5.86884 12.5848 5.69445 12.4405C4.28349 11.2715 3.35493 9.54193 3.25793 7.58995C3.07298 3.84914 6.14793 0.560307 9.8927 0.503041ZM7.96691 3.05675C6.47643 3.26972 4.4523 5.0109 4.91809 7.80675C4.9773 8.16059 5.3122 8.40086 5.66613 8.34191C6.01974 8.28277 6.25876 7.94751 6.20031 7.59386C5.86635 5.5901 7.30769 4.46441 8.15051 4.34386C8.5057 4.29312 8.75269 3.96367 8.70227 3.60851C8.6515 3.25318 8.32224 3.00606 7.96691 3.05675Z" fill="white" fill-opacity="0.6"/>
<path d="M7 16.2H13C13 17.3045 12.1046 18.2 11 18.2H9C7.89543 18.2 7 17.3045 7 16.2Z" fill="white" fill-opacity="0.6"/>
</svg>
