<svg width="20" height="20" viewBox="0 0 20 20" fill="none" xmlns="http://www.w3.org/2000/svg">
<path fill-rule="evenodd" clip-rule="evenodd" d="M10 3.125C8.17664 3.125 6.42795 3.84933 5.13864 5.13864C3.84933 6.42795 3.125 8.17664 3.125 10C3.125 11.8234 3.84933 13.572 5.13864 14.8614C6.42795 16.1507 8.17664 16.875 10 16.875C11.8234 16.875 13.572 16.1507 14.8614 14.8614C16.1507 13.572 16.875 11.8234 16.875 10C16.875 8.17664 16.1507 6.42795 14.8614 5.13864C13.572 3.84933 11.8234 3.125 10 3.125ZM1.875 10C1.875 5.5125 5.5125 1.875 10 1.875C14.4875 1.875 18.125 5.5125 18.125 10C18.125 14.4875 14.4875 18.125 10 18.125C5.5125 18.125 1.875 14.4875 1.875 10Z" fill="white" fill-opacity="0.6"/>
<path d="M9.37504 5C9.37504 4.83424 9.44089 4.67527 9.5581 4.55806C9.67531 4.44085 9.83428 4.375 10 4.375C10.9874 4.37505 11.9574 4.635 12.8125 5.12873C13.6675 5.62245 14.3776 6.33256 14.8713 7.18768C15.3649 8.04279 15.6248 9.01279 15.6248 10.0002C15.6247 10.9876 15.3648 11.9575 14.8711 12.8126C14.3774 13.6677 13.6673 14.3778 12.8122 14.8714C11.9571 15.3651 10.9871 15.625 9.99969 15.625C9.01231 15.625 8.04233 15.3651 7.18723 14.8714C6.33214 14.3777 5.62206 13.6676 5.12837 12.8125C5.04566 12.6689 5.02334 12.4984 5.06631 12.3384C5.10928 12.1784 5.21403 12.042 5.35754 11.9592L9.37504 9.63917V5Z" fill="white" fill-opacity="0.6"/>
</svg>
