<svg width="20" height="20" viewBox="0 0 20 20" fill="none" xmlns="http://www.w3.org/2000/svg">
<path fill-rule="evenodd" clip-rule="evenodd" d="M13.7487 1.45835C13.5276 1.45835 13.3157 1.54615 13.1594 1.70243C13.0031 1.85871 12.9153 2.07067 12.9153 2.29169C12.9153 2.5127 13.0031 2.72466 13.1594 2.88094C13.3157 3.03722 13.5276 3.12502 13.7487 3.12502H14.2562C13.7227 3.60759 13.1635 4.06103 12.5812 4.48335C10.7195 5.84085 7.77533 7.57085 3.48449 9.00002C3.27475 9.06997 3.10139 9.22038 3.00254 9.41815C2.90369 9.61592 2.88746 9.84486 2.95741 10.0546C3.02736 10.2643 3.17777 10.4377 3.37554 10.5366C3.57331 10.6354 3.80225 10.6516 4.01199 10.5817C8.47033 9.09502 11.5678 7.28335 13.562 5.82835C14.2067 5.36083 14.8251 4.85813 15.4145 4.32252V4.79085C15.4145 5.01187 15.5023 5.22383 15.6586 5.38011C15.8149 5.53639 16.0268 5.62419 16.2478 5.62419C16.4688 5.62419 16.6808 5.53639 16.8371 5.38011C16.9934 5.22383 17.0812 5.01187 17.0812 4.79085V2.29085C17.0812 2.06984 16.9934 1.85788 16.8371 1.7016C16.6808 1.54532 16.4688 1.45752 16.2478 1.45752L13.7487 1.45835ZM15.8337 7.29169H15.8153C15.637 7.29169 15.4737 7.29169 15.3353 7.30085C15.187 7.31085 15.0245 7.33419 14.8587 7.40252C14.5014 7.55053 14.2175 7.8344 14.0695 8.19169C14.0098 8.34397 13.9755 8.50498 13.9678 8.66835C13.9587 8.80585 13.9587 8.97002 13.9587 9.14835V16.685C13.9587 16.8634 13.9587 17.0267 13.9678 17.165C13.9778 17.3134 14.0012 17.4759 14.0695 17.6417C14.2178 17.9984 14.5012 18.2834 14.8587 18.4309C15.0245 18.4992 15.187 18.5225 15.3353 18.5325C15.4728 18.5417 15.637 18.5417 15.8153 18.5417H15.852C16.0303 18.5417 16.1937 18.5417 16.332 18.5325C16.4803 18.5225 16.6428 18.4992 16.8087 18.4309C17.1659 18.2828 17.4498 17.999 17.5978 17.6417C17.6662 17.4759 17.6895 17.3134 17.6995 17.165C17.7087 17.0275 17.7087 16.8634 17.7087 16.685V9.14835C17.7087 8.97002 17.7087 8.80669 17.6995 8.66835C17.6918 8.50498 17.6575 8.34397 17.5978 8.19169C17.4498 7.8344 17.1659 7.55053 16.8087 7.40252C16.6564 7.34287 16.4954 7.30853 16.332 7.30085C16.1945 7.29169 16.0303 7.29169 15.852 7.29169H15.8337ZM9.98199 10.2084H10.0187C10.197 10.2084 10.3603 10.2084 10.4987 10.2175C10.647 10.2275 10.8095 10.2509 10.9753 10.3192C11.332 10.4675 11.617 10.7517 11.7645 11.1084C11.8328 11.2742 11.8562 11.4367 11.8662 11.585C11.8753 11.7225 11.8753 11.8867 11.8753 12.065V16.685C11.8753 16.8634 11.8753 17.0267 11.8662 17.165C11.8562 17.3134 11.8328 17.4759 11.7645 17.6417C11.6165 17.999 11.3326 18.2828 10.9753 18.4309C10.8095 18.4992 10.647 18.5225 10.4987 18.5325C10.3612 18.5417 10.197 18.5417 10.0187 18.5417H9.98199C9.80366 18.5417 9.64033 18.5417 9.50199 18.5325C9.33862 18.5248 9.17761 18.4905 9.02533 18.4309C8.66804 18.2828 8.38417 17.999 8.23616 17.6417C8.17651 17.4894 8.14217 17.3284 8.13449 17.165C8.12533 17.0275 8.12533 16.8634 8.12533 16.685V12.065C8.12533 11.8867 8.12533 11.7234 8.13449 11.585C8.14449 11.4367 8.16783 11.2742 8.23616 11.1084C8.38417 10.7511 8.66804 10.4672 9.02533 10.3192C9.19116 10.2509 9.35366 10.2275 9.50199 10.2175C9.63949 10.2084 9.80366 10.2084 9.98199 10.2084ZM4.16699 12.2917H4.14866C3.97033 12.2917 3.80699 12.2917 3.66866 12.3009C3.52033 12.3109 3.35783 12.3342 3.19199 12.4025C2.8347 12.5505 2.55084 12.8344 2.40283 13.1917C2.33449 13.3575 2.31116 13.52 2.30116 13.6684C2.29199 13.8059 2.29199 13.97 2.29199 14.1484V16.685C2.29199 16.8634 2.29199 17.0267 2.30116 17.165C2.31116 17.3134 2.33449 17.4759 2.40283 17.6417C2.55116 17.9984 2.83533 18.2834 3.19199 18.4309C3.35783 18.4992 3.52033 18.5225 3.66866 18.5325C3.80616 18.5417 3.97033 18.5417 4.14866 18.5417H4.18533C4.36366 18.5417 4.52699 18.5417 4.66533 18.5325C4.81366 18.5225 4.97616 18.4992 5.14199 18.4309C5.49928 18.2828 5.78315 17.999 5.93116 17.6417C5.99949 17.4759 6.02283 17.3134 6.03283 17.165C6.04199 17.0275 6.04199 16.8634 6.04199 16.685V14.1484C6.04199 13.97 6.04199 13.8067 6.03283 13.6684C6.02515 13.505 5.99081 13.344 5.93116 13.1917C5.78315 12.8344 5.49928 12.5505 5.14199 12.4025C4.98971 12.3429 4.82869 12.3085 4.66533 12.3009C4.52783 12.2917 4.36366 12.2917 4.18533 12.2917H4.16699Z" fill="white" fill-opacity="0.6"/>
</svg>
