<svg width="20" height="20" viewBox="0 0 20 20" fill="none" xmlns="http://www.w3.org/2000/svg">
<path fill-rule="evenodd" clip-rule="evenodd" d="M8.89782 2.46175C9.44365 1.40175 10.9728 1.40175 11.5195 2.46175L13.3578 6.03508C13.3886 6.09425 13.4462 6.13591 13.512 6.14675L17.5095 6.77675C18.6945 6.96342 19.1678 8.40175 18.3195 9.24425L15.4578 12.0859C15.4347 12.1091 15.4174 12.1374 15.4072 12.1685C15.3971 12.1997 15.3944 12.2327 15.3995 12.2651L16.0295 16.2301C16.217 17.4051 14.9795 18.2951 13.9095 17.7551L10.3045 15.9359C10.2749 15.9206 10.242 15.9126 10.2087 15.9126C10.1753 15.9126 10.1424 15.9206 10.1128 15.9359L6.50865 17.7551C5.43782 18.2951 4.20032 17.4051 4.38782 16.2301L5.01782 12.2651C5.02299 12.2326 5.0204 12.1994 5.01026 12.1681C5.00013 12.1368 4.98272 12.1084 4.95948 12.0851L2.09782 9.24425C1.25032 8.40258 1.72282 6.96342 2.90782 6.77675L6.90532 6.14675C6.93804 6.14172 6.96909 6.12897 6.9959 6.10955C7.02271 6.09013 7.04451 6.0646 7.05948 6.03508L8.89782 2.46175Z" fill="white" fill-opacity="0.6"/>
</svg>
